<svg width="72" height="35" viewBox="0 0 72 35" fill="none" xmlns="http://www.w3.org/2000/svg">
<path d="M0.119995 34V0.735992H19.944L19.128 6.35199H7.992V15.184H17.688V20.8H7.992V34H0.119995Z" fill="#141414"/>
<path d="M32.7191 7.69599C36.6231 7.69599 39.6791 8.89599 41.8871 11.296C44.0951 13.664 45.1991 16.992 45.1991 21.28C45.1991 24 44.6871 26.384 43.6631 28.432C42.6711 30.448 41.2311 32.016 39.3431 33.136C37.4871 34.256 35.2791 34.816 32.7191 34.816C28.8471 34.816 25.7911 33.632 23.5511 31.264C21.3431 28.864 20.2391 25.52 20.2391 21.232C20.2391 18.512 20.7351 16.144 21.7271 14.128C22.7511 12.08 24.1911 10.496 26.0471 9.37599C27.9351 8.25599 30.1591 7.69599 32.7191 7.69599ZM32.7191 13.264C31.1831 13.264 30.0311 13.92 29.2631 15.232C28.4951 16.512 28.1111 18.512 28.1111 21.232C28.1111 24.016 28.4791 26.048 29.2151 27.328C29.9831 28.608 31.1511 29.248 32.7191 29.248C34.2551 29.248 35.4071 28.608 36.1751 27.328C36.9431 26.016 37.3271 24 37.3271 21.28C37.3271 18.496 36.9431 16.464 36.1751 15.184C35.4391 13.904 34.2871 13.264 32.7191 13.264Z" fill="#141414"/>
<path d="M62.973 20.368L71.181 34H62.589L58.173 24.448L53.853 34H45.597L53.805 20.608L46.413 8.51199H54.909L58.461 16.672L61.869 8.51199H69.933L62.973 20.368Z" fill="#141414"/>
</svg>
