<svg width="40" height="40" viewBox="0 0 40 40" fill="none" xmlns="http://www.w3.org/2000/svg">
<path d="M15.4688 3C11.9132 3 9 6.0839 9 9.84783C9 12.0432 10.0543 13.9182 11.5858 15.1739C10.0543 16.4296 9 18.3047 9 20.5C9 22.6953 10.0543 24.5704 11.5858 25.8261C10.0543 27.0818 9 28.9568 9 31.1522C9 34.9161 11.9132 38 15.4688 38C19.0243 38 21.9375 34.9161 21.9375 31.1522V25.8261V16.6957H25.5312C29.0868 16.6957 32 13.6118 32 9.84783C32 6.0839 29.0868 3 25.5312 3H20.5H15.4688ZM15.4688 6.04348H19.0625V13.6522H15.4688C13.4669 13.6522 11.875 11.9669 11.875 9.84783C11.875 7.72871 13.4669 6.04348 15.4688 6.04348ZM21.9375 6.04348H25.5312C27.5331 6.04348 29.125 7.72871 29.125 9.84783C29.125 11.9669 27.5331 13.6522 25.5312 13.6522H21.9375V6.04348ZM15.4688 16.6957H19.0625V24.3043H15.4688C13.4669 24.3043 11.875 22.6191 11.875 20.5C11.875 18.3809 13.4669 16.6957 15.4688 16.6957ZM26.25 16.6957C25.1063 16.6957 24.0094 17.1766 23.2006 18.0328C22.3919 18.8889 21.9375 20.0501 21.9375 21.2609C21.9375 22.4716 22.3919 23.6328 23.2006 24.489C24.0094 25.3451 25.1063 25.8261 26.25 25.8261C27.3937 25.8261 28.4906 25.3451 29.2994 24.489C30.1081 23.6328 30.5625 22.4716 30.5625 21.2609C30.5625 20.0501 30.1081 18.8889 29.2994 18.0328C28.4906 17.1766 27.3937 16.6957 26.25 16.6957ZM15.4688 27.3478H19.0625V31.1522C19.0625 33.2713 17.4706 34.9565 15.4688 34.9565C13.4669 34.9565 11.875 33.2713 11.875 31.1522C11.875 29.0331 13.4669 27.3478 15.4688 27.3478Z" fill="#CCCCCC"/>
</svg>
