<svg width="26" height="18" viewBox="0 0 26 18" fill="none" xmlns="http://www.w3.org/2000/svg">
<g clip-path="url(#clip0_183_43)">
<path d="M26 15.5C26 16.2662 25.6956 17.001 25.1539 17.5428C24.6121 18.0845 23.8773 18.3889 23.1111 18.3889H2.88889C2.12271 18.3889 1.38791 18.0845 0.846136 17.5428C0.304364 17.001 0 16.2662 0 15.5V2.5C0 1.73382 0.304364 0.999022 0.846136 0.45725C1.38791 -0.0845214 2.12271 -0.388885 2.88889 -0.388885H23.1111C23.8773 -0.388885 24.6121 -0.0845214 25.1539 0.45725C25.6956 0.999022 26 1.73382 26 2.5V15.5Z" fill="#C60A1D"/>
<path d="M0 4.66666H26V13.3333H0V4.66666Z" fill="#FFC400"/>
<path d="M6.5 8.27777V10.4444C6.5 11.0191 6.72827 11.5702 7.1346 11.9765C7.54093 12.3828 8.09203 12.6111 8.66667 12.6111C9.2413 12.6111 9.7924 12.3828 10.1987 11.9765C10.6051 11.5702 10.8333 11.0191 10.8333 10.4444V8.27777H6.5Z" fill="#EA596E"/>
<path d="M8.6665 7.55554H10.8332V9.72221H8.6665V7.55554Z" fill="#F4A2B2"/>
<path d="M6.5 7.55554H8.66667V9.72221H6.5V7.55554Z" fill="#DD2E44"/>
<path d="M8.66667 7.55555C9.86328 7.55555 10.8333 7.07053 10.8333 6.47222C10.8333 5.87391 9.86328 5.38889 8.66667 5.38889C7.47005 5.38889 6.5 5.87391 6.5 6.47222C6.5 7.07053 7.47005 7.55555 8.66667 7.55555Z" fill="#EA596E"/>
<path d="M8.66667 6.47222C9.86328 6.47222 10.8333 6.22971 10.8333 5.93055C10.8333 5.6314 9.86328 5.38889 8.66667 5.38889C7.47005 5.38889 6.5 5.6314 6.5 5.93055C6.5 6.22971 7.47005 6.47222 8.66667 6.47222Z" fill="#FFAC33"/>
<path d="M5.05566 7.55554H5.77789V12.6111H5.05566V7.55554ZM11.5557 7.55554H12.2779V12.6111H11.5557V7.55554Z" fill="#99AAB5"/>
<path d="M4.3335 11.8889H6.50016V12.6111H4.3335V11.8889ZM10.8335 11.8889H13.0002V12.6111H10.8335V11.8889ZM5.05572 6.83334H5.77794V7.55557H5.05572V6.83334ZM11.5557 6.83334H12.2779V7.55557H11.5557V6.83334Z" fill="#66757F"/>
</g>
<defs>
<clipPath id="clip0_183_43">
<rect width="26" height="18" fill="white"/>
</clipPath>
</defs>
</svg>
