<svg width="26" height="18" viewBox="0 0 26 18" fill="none" xmlns="http://www.w3.org/2000/svg">
<g clip-path="url(#clip0_183_62)">
<path d="M0 15.2284C0 15.9625 0.304364 16.6666 0.846136 17.1858C1.38791 17.7049 2.12271 17.9965 2.88889 17.9965H23.1111C23.8773 17.9965 24.6121 17.7049 25.1539 17.1858C25.6956 16.6666 26 15.9625 26 15.2284V12.4602H0V15.2284Z" fill="#FFCD05"/>
<path d="M0 6.23184H26V12.4602H0V6.23184Z" fill="#ED1F24"/>
<path d="M23.1111 0.00344849H2.88889C2.12271 0.00344849 1.38791 0.295094 0.846136 0.814225C0.304364 1.33336 0 2.03745 0 2.77161L0 6.23182H26V2.77161C26 2.03745 25.6956 1.33336 25.1539 0.814225C24.6121 0.295094 23.8773 0.00344849 23.1111 0.00344849Z" fill="#141414"/>
</g>
<defs>
<clipPath id="clip0_183_62">
<rect width="26" height="18" fill="white"/>
</clipPath>
</defs>
</svg>
