<svg width="40" height="40" viewBox="0 0 40 40" fill="none" xmlns="http://www.w3.org/2000/svg">
<g clip-path="url(#clip0_117_38)">
<path d="M39.2427 18.2175L21.7774 0.754663C21.5383 0.515413 21.2544 0.325623 20.9418 0.196135C20.6293 0.0666477 20.2944 0 19.9561 0C19.6179 0 19.2829 0.0666477 18.9704 0.196135C18.6579 0.325623 18.374 0.515413 18.1348 0.754663L14.5098 4.37973L19.1099 8.97981C19.6524 8.79458 20.236 8.7656 20.7942 8.89618C21.3524 9.02676 21.8627 9.31164 22.2668 9.7183C22.6708 10.125 22.9524 10.637 23.0794 11.1961C23.2064 11.7551 23.1736 12.3386 22.9849 12.8799L27.4175 17.315C28.0733 17.0841 28.7882 17.0834 29.4444 17.313C30.1007 17.5426 30.6591 17.9888 31.0279 18.5782C31.3967 19.1676 31.5538 19.865 31.4733 20.5556C31.3928 21.2462 31.0795 21.8888 30.5851 22.3775C30.0845 22.8812 29.4246 23.1954 28.7182 23.2665C28.0117 23.3376 27.3024 23.1613 26.7115 22.7675C26.1206 22.3738 25.6848 21.7871 25.4784 21.1077C25.272 20.4283 25.3079 19.6984 25.58 19.0425L21.4474 14.9074V25.7901C22.0756 26.101 22.5782 26.6179 22.8715 27.2545C23.1648 27.891 23.231 28.6089 23.0592 29.2884C22.8874 29.9679 22.4879 30.568 21.9272 30.9887C21.3666 31.4094 20.6787 31.6252 19.9783 31.6001C19.2778 31.5751 18.6071 31.3108 18.0779 30.8512C17.5487 30.3916 17.193 29.7646 17.0701 29.0745C16.9472 28.3845 17.0645 27.6732 17.4025 27.0591C17.7404 26.4451 18.2786 25.9654 18.9274 25.7001V14.7174C18.5531 14.564 18.2128 14.3381 17.9263 14.0526C17.6397 13.7672 17.4125 13.4278 17.2577 13.0541C17.103 12.6804 17.0237 12.2797 17.0245 11.8753C17.0253 11.4708 17.1061 11.0704 17.2623 10.6973L12.7297 6.16226L0.754541 18.1375C0.515291 18.3766 0.325501 18.6605 0.196013 18.973C0.0665256 19.2855 -0.00012207 19.6205 -0.00012207 19.9588C-0.00012207 20.297 0.0665256 20.632 0.196013 20.9445C0.325501 21.257 0.515291 21.5409 0.754541 21.78L18.2198 39.2453C18.459 39.4846 18.7429 39.6744 19.0554 39.8039C19.3679 39.9334 19.7029 40 20.0411 40C20.3794 40 20.7143 39.9334 21.0268 39.8039C21.3394 39.6744 21.6233 39.4846 21.8624 39.2453L39.2452 21.8625C39.4845 21.6234 39.6743 21.3395 39.8037 21.027C39.9332 20.7145 39.9999 20.3795 39.9999 20.0413C39.9999 19.703 39.9332 19.368 39.8037 19.0555C39.6743 18.743 39.4845 18.4591 39.2452 18.22" fill="#B8B8B8"/>
</g>
<defs>
<clipPath id="clip0_117_38">
<rect width="40" height="40" fill="white"/>
</clipPath>
</defs>
</svg>
