<svg width="40" height="40" viewBox="0 0 40 40" fill="none" xmlns="http://www.w3.org/2000/svg">
<g clip-path="url(#clip0_123_2)">
<path d="M39.9508 17.65C39.7746 15.8901 39.2455 14.1756 38.3902 12.5933C37.5712 11.0748 36.4757 9.69652 35.1514 8.51833C35.7615 6.28167 34.4037 4.34333 34.4037 4.34333C32.0646 4.21 30.5782 5.01 30.0296 5.37667C29.9355 5.34333 29.845 5.30333 29.7508 5.27C29.3525 5.12167 28.9434 4.98333 28.5252 4.85833C28.107 4.73667 27.6743 4.625 27.238 4.53C26.7146 4.41867 26.186 4.32914 25.6538 4.26167C24.6291 1.255 21.7017 0 21.7017 0C18.4356 1.90833 17.8147 4.57333 17.8147 4.57333L17.7821 4.72833C17.6046 4.77667 17.42 4.82333 17.2426 4.875C16.9927 4.945 16.7447 5.03167 16.4949 5.11333C16.245 5.205 15.997 5.29167 15.7526 5.39C14.7624 5.78491 13.818 6.2707 12.9337 6.84L12.8197 6.79167C8.29902 5.2 4.28167 7.11667 4.28167 7.11667C3.91416 11.5467 6.08486 14.3333 6.51756 14.8433C5.96666 16.2628 5.59784 17.7367 5.41862 19.235C1.23653 21.1283 0 25.0233 0 25.0233C3.48689 28.7133 7.55131 28.9417 7.55131 28.9417C7.55675 28.9383 7.56218 28.9383 7.56218 28.9333C8.07815 29.7817 8.67559 30.59 9.34726 31.3433C9.62969 31.66 9.9266 31.9617 10.2308 32.2567C8.95621 35.605 10.41 38.39 10.41 38.39C14.2916 38.5233 16.8425 36.8283 17.3783 36.435C19.2249 37.0012 21.1603 37.2833 23.1066 37.27H23.2514L23.351 37.265L23.5447 37.2617L23.7312 37.2533L23.7366 37.2567C25.5651 39.6567 28.7841 40 28.7841 40C31.0725 37.78 31.2046 35.5783 31.2046 35.1V35.0033C31.2046 34.97 31.1992 34.9383 31.1992 34.9033C31.679 34.5917 32.1406 34.2583 32.5715 33.9033C33.566 33.0745 34.4284 32.1207 35.1333 31.07C37.7222 31.2083 39.5453 29.595 39.5453 29.595C39.118 27.1117 37.581 25.9017 37.2569 25.6717L37.2243 25.65L37.1953 25.6283C37.1756 25.6187 37.1569 25.6076 37.1392 25.595C37.1537 25.4417 37.1682 25.295 37.1754 25.145C37.1953 24.875 37.2044 24.6067 37.2044 24.345V23.9233L37.1953 23.76L37.1809 23.535C37.1775 23.4626 37.1715 23.3903 37.1628 23.3183C37.1573 23.2483 37.1483 23.18 37.1392 23.11L37.1103 22.9033L37.0777 22.7C36.6825 20.2943 35.3801 18.0935 33.3989 16.4833C31.7633 15.1523 29.731 14.3045 27.5656 14.05C27.0552 13.9914 26.5411 13.9646 26.0268 13.97L25.8331 13.9733H25.719L25.6393 13.9783L25.4511 13.9917C24.29 14.0643 23.1567 14.352 22.1193 14.8374C21.0818 15.3228 20.1614 15.996 19.4133 16.8167C18.8122 17.4833 18.3415 18.2167 18.0229 18.9783C17.6142 19.9423 17.4221 20.9725 17.458 22.0067L17.4634 22.1583C17.4725 22.25 17.4761 22.3417 17.487 22.4317C17.5985 23.5302 18.0357 24.5795 18.7507 25.465C19.5732 26.4878 20.7338 27.2375 22.0583 27.6017C22.6558 27.765 23.2532 27.835 23.8162 27.83C23.8868 27.83 23.9575 27.83 24.0226 27.8267L24.1367 27.8217C24.1729 27.8217 24.2109 27.8167 24.2489 27.8167C24.3105 27.8133 24.3666 27.805 24.4282 27.8C24.4408 27.8 24.4608 27.795 24.4789 27.795L24.535 27.7867L24.6436 27.7733C24.7117 27.7652 24.7794 27.7541 24.8464 27.74C24.9116 27.7267 24.9767 27.7183 25.0437 27.7C25.6384 27.5692 26.2001 27.3344 26.6985 27.0083C26.7491 26.975 26.7998 26.94 26.8523 26.9C26.8988 26.8661 26.9375 26.8241 26.9662 26.7763C26.9949 26.7286 27.0131 26.6761 27.0196 26.6219C27.0262 26.5676 27.021 26.5127 27.0044 26.4604C26.9878 26.408 26.9601 26.3591 26.9229 26.3167C26.8575 26.2419 26.7655 26.1908 26.6631 26.1725C26.5607 26.1542 26.4546 26.1698 26.3635 26.2167L26.2223 26.2867C26.0594 26.36 25.8892 26.425 25.71 26.48C25.4297 26.5591 25.1416 26.6127 24.85 26.64C24.7993 26.645 24.7522 26.65 24.6997 26.65L24.5495 26.6533C24.5024 26.6533 24.4517 26.6533 24.4046 26.65L24.22 26.64H24.1982L24.1548 26.65C24.1258 26.645 24.0987 26.645 24.0751 26.64C24.019 26.6367 23.9665 26.6283 23.9104 26.6233C23.457 26.5645 23.0154 26.4449 22.5996 26.2683C22.1581 26.0847 21.7506 25.8383 21.3921 25.5383C20.6151 24.8965 20.1006 24.0288 19.9347 23.08C19.8913 22.8355 19.8737 22.5876 19.8822 22.34L19.893 22.1367V22.0983L19.8967 22.0467C19.9021 22.0117 19.9021 21.98 19.9057 21.9467C19.9883 21.185 20.25 20.4491 20.6727 19.79C21.0954 19.1309 21.6689 18.5644 22.3534 18.13C22.8718 17.8062 23.4451 17.564 24.0498 17.4133C24.5079 17.3 24.9803 17.2433 25.4547 17.245H25.5633L25.69 17.2483L25.7715 17.2533H25.8186L25.9453 17.2617C26.9839 17.3368 27.9931 17.6152 28.9054 18.0783C30.1509 18.7144 31.161 19.6791 31.8057 20.8483C32.2108 21.5829 32.455 22.3837 32.5244 23.205L32.5335 23.3317L32.5389 23.4567C32.5425 23.5 32.5425 23.54 32.5425 23.5817C32.5425 23.6217 32.548 23.6683 32.5425 23.6983V23.8067L32.5389 23.9283L32.5244 24.2183C32.4962 24.5754 32.4479 24.9309 32.3796 25.2833C32.2719 25.8112 32.11 26.3285 31.8962 26.8283C31.6042 27.4961 31.2249 28.1285 30.7665 28.7117C29.3642 30.4922 27.2608 31.697 24.9061 32.0683C24.5176 32.1294 24.1251 32.1661 23.7312 32.1783L23.6605 32.1833H23.1409C22.0888 32.1626 21.0442 32.0141 20.0342 31.7417C17.6073 31.0922 15.4575 29.7686 13.8788 27.9517C13.3591 27.3566 12.9066 26.7144 12.5282 26.035C11.7797 24.6896 11.3397 23.2169 11.2355 21.7083L11.2265 21.57L11.2229 21.5367V21.4433L11.2174 21.3217V21.1617L11.212 20.9883V20.8717L11.2174 20.6C11.2319 20.2333 11.2645 19.85 11.3152 19.47C11.4188 18.706 11.5883 17.9509 11.8221 17.2117C12.0539 16.4717 12.3399 15.7583 12.6785 15.0833C13.3178 13.7784 14.2112 12.5922 15.3144 11.5833C15.8405 11.1059 16.4186 10.6797 17.0398 10.3117C17.3458 10.1267 17.6608 9.95667 17.9885 9.80167C18.1496 9.71833 18.318 9.65 18.4827 9.57666C18.5678 9.54333 18.6511 9.50667 18.7325 9.47333C19.1546 9.30402 19.5861 9.15548 20.0252 9.02833L20.2877 8.95333C20.3764 8.92833 20.4651 8.91 20.5557 8.885C20.7331 8.83667 20.9123 8.79833 21.0915 8.75833C21.1803 8.73667 21.2726 8.725 21.3631 8.70333L21.6347 8.65L21.908 8.60333L22.0456 8.58167L22.1814 8.565L22.4584 8.525C22.5616 8.50833 22.6648 8.50333 22.768 8.48667L23.074 8.45167C23.1391 8.44667 23.2061 8.43833 23.2659 8.435L23.398 8.42167L23.4632 8.41667L23.5392 8.41333C23.6424 8.40833 23.7456 8.4 23.8488 8.39667L24.0045 8.38667H24.0462L24.1132 8.38167L24.3757 8.37C25.4115 8.33737 26.4482 8.40722 27.4679 8.57833C28.7542 8.79855 30.0017 9.17987 31.1757 9.71167C32.2608 10.2023 33.2772 10.8123 34.2027 11.5283L34.3656 11.6567L34.5268 11.7867C34.6354 11.8733 34.7332 11.965 34.8363 12.0517C34.9395 12.1383 35.0391 12.2283 35.1369 12.3183C35.231 12.41 35.3306 12.4967 35.4247 12.5917C36.4395 13.5748 37.2988 14.6846 37.9774 15.8883C37.9992 15.9317 38.0281 15.975 38.0499 16.0183L38.1223 16.1483L38.2581 16.4083C38.2997 16.4933 38.3486 16.575 38.3848 16.6633L38.5025 16.9133C38.8383 17.6366 39.1107 18.3834 39.3172 19.1467C39.3375 19.2194 39.3852 19.2832 39.4519 19.3266C39.5185 19.3699 39.5998 19.39 39.6811 19.3833C39.7653 19.3775 39.844 19.3427 39.9017 19.2859C39.9594 19.2291 39.9918 19.1544 39.9925 19.0767C40.0106 18.6667 39.9961 18.19 39.949 17.65H39.9508Z" fill="#B8B8B8" stroke="#B8B8B8" stroke-width="0.00165833"/>
</g>
<defs>
<clipPath id="clip0_123_2">
<rect width="40" height="40" fill="white"/>
</clipPath>
</defs>
</svg>
