<svg width="40" height="40" viewBox="0 0 40 40" fill="none" xmlns="http://www.w3.org/2000/svg">
<g clip-path="url(#clip0_117_46)">
<path d="M0 0V40H40V0H0ZM21.4286 31.0714C21.4286 34.9652 19.1286 36.8634 15.7991 36.8634C12.792 36.8634 11.0464 35.3063 10.1607 33.4268L13.2214 31.5741C13.8116 32.6214 14.2598 33.5071 15.5482 33.5071C16.6196 33.5071 17.5 33.0241 17.5 31.1446V18.5714H21.4286V31.0714ZM30.2991 36.7741C26.8089 36.7741 24.5536 35.1991 23.4527 33.0241L26.5179 31.25C27.3214 32.5661 28.3705 33.4429 30.2232 33.4429C31.7804 33.4429 32.6848 32.7536 32.6848 31.6795C32.6848 30.3911 31.7536 29.9348 30.0348 29.1795L29.0955 28.7759C26.383 27.6223 24.5848 26.1723 24.5848 23.1107C24.5848 20.292 26.7321 18.233 30.0884 18.233C32.4786 18.233 34.1955 18.9759 35.4321 21.1509L32.5 23.0357C31.8554 21.8813 31.1607 21.4286 30.0839 21.4286C28.983 21.4286 28.2848 22.1268 28.2848 23.0357C28.2848 24.1634 28.983 24.6196 30.5938 25.3179L31.533 25.7205C34.7286 27.0902 36.5277 28.4884 36.5277 31.6277C36.5286 35.0116 33.8705 36.7741 30.2991 36.7741Z" fill="#B8B8B8"/>
</g>
<defs>
<clipPath id="clip0_117_46">
<rect width="40" height="40" fill="white"/>
</clipPath>
</defs>
</svg>
