<svg width="40" height="40" viewBox="0 0 40 40" fill="none" xmlns="http://www.w3.org/2000/svg">
<g clip-path="url(#clip0_123_12)">
<path d="M5 0C2.23375 0 0 2.23375 0 5V15.175H4.765C6.58125 15.175 8.04625 16.6287 8.03375 18.4437V18.4837C9.38875 18.32 10.2225 17.89 10.8275 17.3437C11.5175 16.705 11.9812 15.8275 12.5212 14.8437C13.0613 13.86 13.7063 12.7675 14.8713 11.9737C15.8275 11.315 17.1225 10.8987 18.8425 10.8275V10.0787C18.8425 8.255 20.3075 6.78375 22.1287 6.78375H35.28C37.1038 6.78375 38.575 8.255 38.575 10.0787V13.3137C38.575 15.13 37.1038 16.7 35.28 16.7H22.1287C20.3075 16.7 18.8425 15.13 18.8425 13.3137V12.5587C17.4163 12.6175 16.4925 12.95 15.8475 13.3987C15.0463 13.945 14.5512 14.7337 14.0375 15.6775C13.5162 16.6225 12.9825 17.7162 11.9987 18.6212L11.8687 18.7312C16.985 19.4212 19.31 21.3225 21.2887 23.055C23.6 25.08 25.41 26.8437 31.7838 26.87V26.1012C31.7838 24.2775 33.275 22.86 35.0988 22.86H40V5.00125C40 2.235 37.7663 0.00125 35 0.00125L5 0ZM22.1287 9.01625C21.51 9.01625 20.9838 9.46625 20.9838 10.0775V13.3125C20.9838 13.9237 21.51 14.3737 22.1287 14.3737H35.28C35.8713 14.3937 36.36 13.905 36.3413 13.3125V10.0775C36.36 9.48375 35.8713 8.99625 35.28 9.01625H22.1287ZM0 17.415V22.8587H4.765C5.39 22.845 5.885 22.33 5.89125 21.705V18.47C5.89125 17.8587 5.3775 17.415 4.765 17.415H0ZM8.03375 20.195V21.705C8.0475 23.5212 6.575 25 4.765 25H0V35C0 37.7662 2.23375 40 5 40H35C37.7663 40 40 37.7662 40 35V32.675H35.0988C33.275 32.675 31.7838 31.1587 31.7838 29.3362V28.5925C25.045 28.5412 22.455 26.3725 20.15 24.3537C17.7538 22.2575 15.5662 20.3062 8.03375 20.195ZM35.0988 25C34.4925 25 34.0037 25.495 34.0175 26.1V29.3362C34.0175 29.9475 34.4813 30.3575 35.0988 30.3575H40V24.9987L35.0988 25Z" fill="#B8B8B8"/>
</g>
<defs>
<clipPath id="clip0_123_12">
<rect width="40" height="40" fill="white"/>
</clipPath>
</defs>
</svg>
