<svg width="40" height="40" viewBox="0 0 40 40" fill="none" xmlns="http://www.w3.org/2000/svg">
<g clip-path="url(#clip0_117_30)">
<path d="M32.887 12.9646C32.4609 12.8013 32.0317 12.6493 31.5995 12.5085C31.6712 12.1814 31.7373 11.8524 31.7978 11.5216C32.7728 6.20383 32.1353 1.91973 29.9596 0.509452C27.8763 -0.843815 24.4598 0.566461 21.0133 3.93841C20.6744 4.27112 20.3425 4.6138 20.0175 4.96645C19.8008 4.73218 19.5786 4.5029 19.3509 4.2786C15.7385 0.673002 12.1178 -0.845685 9.94459 0.569265C7.86134 1.92534 7.2422 5.95243 8.11966 10.9926C8.20744 11.491 8.30604 11.9873 8.41548 12.4814C7.91748 12.6397 7.42368 12.8142 6.93471 13.0047C2.70489 14.6636 0 17.2645 0 19.9617C0 22.7486 2.90321 25.543 7.31386 27.2374C7.67162 27.3739 8.03272 27.5007 8.39715 27.6178C8.27882 28.1468 8.1741 28.6816 8.083 29.2225C7.2497 34.1757 7.89967 38.1075 9.97875 39.4551C12.1262 40.8467 15.7285 39.4168 19.24 35.9682C19.5178 35.6953 19.7956 35.4072 20.0733 35.1037C20.4244 35.4844 20.7855 35.8539 21.1566 36.2122C24.5565 39.5 27.9138 40.828 29.9896 39.4766C32.1353 38.0804 32.8328 33.8561 31.927 28.7168C31.8576 28.3243 31.7776 27.9237 31.687 27.515C31.9403 27.4309 32.1884 27.344 32.4311 27.2542C37.0143 25.5468 40 22.786 40 19.9645C39.9983 17.2543 37.2068 14.6365 32.887 12.9646ZM22.1374 5.38701C25.0898 2.49823 27.8497 1.35805 29.108 2.173C30.4471 3.04122 30.9679 6.54215 30.1262 11.1337C30.0707 11.4328 30.0107 11.7309 29.9463 12.0281C28.1843 11.5786 26.3977 11.2614 24.5981 11.0786C23.5678 9.41398 22.4383 7.82938 21.2174 6.3356C21.5163 6.01037 21.8224 5.69417 22.1357 5.38701H22.1374ZM11.8103 22.2664C12.172 23.0514 12.55 23.8268 12.9445 24.5926C13.3461 25.3739 13.7647 26.1436 14.2002 26.9019C12.962 26.7509 11.7316 26.5285 10.5137 26.2355C10.867 24.9533 11.302 23.6215 11.8103 22.2664ZM11.8103 17.7496C11.3104 16.4234 10.887 15.1188 10.5396 13.8589C11.6812 13.572 12.8978 13.3375 14.1661 13.1599C13.7411 13.9038 13.3322 14.6586 12.9395 15.4244C12.5467 16.1901 12.1695 16.9652 11.8078 17.7496H11.8103ZM12.7186 20.0085C13.2453 18.7767 13.8125 17.5686 14.4202 16.3842C15.0274 15.2004 15.6738 14.0437 16.3593 12.9141C17.5493 12.8132 18.7692 12.7599 20.0017 12.7599C21.2341 12.7599 22.4616 12.8132 23.6507 12.915C24.329 14.0421 24.9715 15.1948 25.5781 16.373C26.1847 17.5511 26.7594 18.7536 27.3022 19.9804C26.7667 21.2166 26.1934 22.4296 25.5823 23.6197C24.9762 24.8035 24.3373 25.9636 23.6657 27.1C22.4782 27.1935 21.2491 27.2449 19.9992 27.2449C18.7492 27.2449 17.5434 27.201 16.3777 27.1159C15.6871 25.9826 15.0355 24.8209 14.4227 23.6309C13.81 22.4409 13.2411 21.2334 12.7161 20.0085H12.7186ZM27.0614 24.5795C27.4641 23.7957 27.8508 23.0016 28.2213 22.1972C28.7293 23.4889 29.1776 24.809 29.5646 26.1524C28.3325 26.4635 27.0866 26.7022 25.8323 26.8673C26.2556 26.1141 26.6653 25.3514 27.0614 24.5795ZM28.2047 17.7505C27.8358 16.9624 27.4522 16.1835 27.0539 15.4141C26.665 14.6552 26.2597 13.9057 25.8381 13.1655C27.1139 13.3468 28.338 13.5879 29.4854 13.8823C29.1165 15.1949 28.689 16.486 28.2047 17.7505ZM20.0183 7.7085C20.8504 8.72821 21.6361 9.79436 22.3724 10.9029C20.7975 10.8188 19.2214 10.8188 17.6443 10.9029C18.4217 9.74961 19.2175 8.67952 20.0183 7.7085ZM10.8046 2.23001C12.1428 1.35898 15.1019 2.60384 18.2209 5.71317C18.4201 5.91224 18.6209 6.12065 18.8209 6.33654C17.5937 7.8301 16.4563 9.41332 15.416 11.0758C13.6205 11.2572 11.8373 11.5694 10.0779 12.0104C9.97625 11.5518 9.88459 11.0901 9.80293 10.6253C9.04879 6.30476 9.54794 3.04776 10.8046 2.23001ZM8.8538 25.7673C8.52048 25.6608 8.19133 25.5452 7.86634 25.4206C5.91642 24.6729 4.30565 23.6972 3.19987 22.6346C2.20991 21.6823 1.70826 20.7318 1.70826 19.9617C1.70826 18.3253 3.87984 16.2374 7.50135 14.8216C7.95634 14.644 8.41521 14.4817 8.87796 14.3346C9.41582 16.2732 10.0672 18.1699 10.8279 20.0122C10.0581 21.88 9.39869 23.8025 8.8538 25.7673ZM18.1142 34.5215C16.5618 36.0467 15.0069 37.128 13.6361 37.6729C12.4045 38.1617 11.4237 38.1757 10.8312 37.7916C9.5696 36.9738 9.04462 33.8159 9.76043 29.5804C9.84542 29.082 9.94264 28.5835 10.0521 28.0851C11.8291 28.5144 13.6302 28.8076 15.4427 28.9626C16.4931 30.6338 17.64 32.2259 18.8759 33.729C18.6276 34.0028 18.3734 34.2664 18.1142 34.5215ZM20.0658 32.3514C19.2559 31.3692 18.4476 30.2823 17.6593 29.114C18.4253 29.1477 19.2053 29.1645 19.9992 29.1645C20.8141 29.1645 21.6208 29.1449 22.4157 29.1047C21.6821 30.231 20.8978 31.3146 20.0658 32.3514ZM30.4421 35.0234C30.2037 36.4664 29.7246 37.429 29.1321 37.814C27.8713 38.6346 25.1756 37.5682 22.2691 34.7561C21.9358 34.4346 21.6024 34.0897 21.2633 33.7281C22.4751 32.2192 23.5951 30.6205 24.6156 28.943C26.4382 28.7698 28.248 28.456 30.0321 28.0038C30.1137 28.3739 30.186 28.7365 30.2487 29.0916C30.6496 31.3626 30.7071 33.4168 30.4421 35.0234ZM31.892 25.4309C31.6737 25.5122 31.4487 25.5907 31.2204 25.6673C30.6609 23.7196 29.9841 21.8168 29.1946 19.972C29.9545 18.1518 30.6048 16.2766 31.1412 14.3589C31.5504 14.4926 31.9478 14.6328 32.3303 14.7814C36.0318 16.2131 38.2901 18.3328 38.2901 19.9617C38.2901 21.7 35.851 23.9561 31.892 25.4309Z" fill="#B8B8B8"/>
<path d="M19.9902 23C20.584 23.0019 21.165 22.8276 21.6596 22.4991C22.1542 22.1707 22.5403 21.7028 22.7688 21.1548C22.9974 20.6068 23.0582 20.0033 22.9435 19.4207C22.8289 18.8381 22.5439 18.3027 22.1248 17.8821C21.7056 17.4616 21.1711 17.1749 20.5889 17.0584C20.0067 16.9418 19.403 17.0007 18.8542 17.2274C18.3055 17.4542 17.8364 17.8387 17.5063 18.3323C17.1762 18.8258 17 19.4062 17 20C16.9992 20.3934 17.0759 20.783 17.2258 21.1468C17.3756 21.5105 17.5957 21.8411 17.8734 22.1197C18.1511 22.3983 18.481 22.6195 18.8442 22.7705C19.2074 22.9215 19.5969 22.9995 19.9902 23Z" fill="#B8B8B8"/>
</g>
<defs>
<clipPath id="clip0_117_30">
<rect width="40" height="40" fill="white"/>
</clipPath>
</defs>
</svg>
