<svg width="118" height="38" viewBox="0 0 118 38" fill="none" xmlns="http://www.w3.org/2000/svg">
<path d="M25.536 3.784L24.768 9.304H16.368V37H9.31198V9.304H0.47998V3.784H25.536Z" fill="#F4F4F4"/>
<path d="M47.8796 23.704C47.8796 24.024 47.8316 24.904 47.7356 26.344H31.8476C32.0716 28.648 32.6956 30.28 33.7196 31.24C34.7436 32.2 36.1356 32.68 37.8956 32.68C38.9836 32.68 40.0076 32.504 40.9676 32.152C41.9276 31.8 42.9676 31.24 44.0876 30.472L46.9196 34.312C44.0716 36.616 40.8556 37.768 37.2716 37.768C33.2716 37.768 30.1996 36.568 28.0556 34.168C25.9116 31.768 24.8396 28.52 24.8396 24.424C24.8396 21.832 25.2876 19.512 26.1836 17.464C27.1116 15.384 28.4396 13.752 30.1676 12.568C31.9276 11.384 34.0076 10.792 36.4076 10.792C40.0236 10.792 42.8396 11.928 44.8556 14.2C46.8716 16.472 47.8796 19.64 47.8796 23.704ZM41.1116 21.784C41.1116 17.56 39.5916 15.448 36.5516 15.448C35.1436 15.448 34.0396 15.976 33.2396 17.032C32.4716 18.056 32.0076 19.736 31.8476 22.072H41.1116V21.784Z" fill="#F4F4F4"/>
<path d="M59.1491 37.768C57.0691 37.768 55.4531 37.176 54.3011 35.992C53.1491 34.776 52.5731 33.064 52.5731 30.856V1.432L59.3891 0.664001V30.664C59.3891 31.784 59.8531 32.344 60.7811 32.344C61.2931 32.344 61.7411 32.248 62.1251 32.056L63.5171 36.904C62.2051 37.48 60.7491 37.768 59.1491 37.768Z" fill="#F4F4F4"/>
<path d="M81.2242 10.792C83.4322 10.792 85.1602 11.48 86.4082 12.856C87.6882 14.2 88.3282 16.072 88.3282 18.472V37H81.5122V19.624C81.5122 18.248 81.2722 17.288 80.7922 16.744C80.3122 16.168 79.6242 15.88 78.7282 15.88C76.9362 15.88 75.3042 17.048 73.8322 19.384V37H67.0162V1.432L73.8322 0.712001V14.44C74.8562 13.224 75.9602 12.312 77.1442 11.704C78.3602 11.096 79.7202 10.792 81.2242 10.792Z" fill="#F4F4F4"/>
<path d="M105.517 10.792C109.325 10.792 112.301 11.992 114.445 14.392C116.589 16.76 117.661 20.056 117.661 24.28C117.661 26.968 117.165 29.336 116.173 31.384C115.213 33.4 113.805 34.968 111.949 36.088C110.125 37.208 107.965 37.768 105.469 37.768C101.661 37.768 98.6691 36.584 96.4931 34.216C94.3491 31.816 93.2771 28.504 93.2771 24.28C93.2771 21.592 93.7571 19.24 94.7171 17.224C95.7091 15.176 97.1171 13.592 98.9411 12.472C100.797 11.352 102.989 10.792 105.517 10.792ZM105.517 15.88C103.789 15.88 102.493 16.568 101.629 17.944C100.797 19.288 100.381 21.4 100.381 24.28C100.381 27.16 100.797 29.288 101.629 30.664C102.493 32.008 103.773 32.68 105.469 32.68C107.165 32.68 108.429 32.008 109.261 30.664C110.125 29.288 110.557 27.16 110.557 24.28C110.557 21.4 110.141 19.288 109.309 17.944C108.477 16.568 107.213 15.88 105.517 15.88Z" fill="#F4F4F4"/>
</svg>
