<svg width="26" height="18" viewBox="0 0 26 18" fill="none" xmlns="http://www.w3.org/2000/svg">
<g clip-path="url(#clip0_183_53)">
<path d="M24.0528 0H1.94721C0.871762 0 0 0.921171 0 2.05757V15.9424C0 17.0788 0.871762 18 1.94721 18H24.0528C25.1282 18 26 17.0788 26 15.9424V2.05757C26 0.921171 25.1282 0 24.0528 0Z" fill="#41479B"/>
<path d="M25.973 1.71748C25.8196 0.743075 25.0185 0 24.0528 0H23.5461L15.2414 5.74945V5.36299e-05H10.7586V5.7495L2.45385 5.36299e-05H1.94721C0.9815 5.36299e-05 0.180426 0.743075 0.0269648 1.71753L7.12507 6.63166H0V11.3685H7.12507L0.0269648 16.2825C0.180426 17.2569 0.9815 18 1.94721 18H2.45385L10.7586 12.2506V18H15.2414V12.2506L23.5461 18H24.0528C25.0185 18 25.8196 17.257 25.973 16.2825L18.8749 11.3684H26V6.63155H18.8749L25.973 1.71748Z" fill="#F5F5F5"/>
<path d="M14.3448 0H11.6552V7.57893H0V10.4211H11.6552V18H14.3448V10.4211H26V7.57893H14.3448V0Z" fill="#FF4B55"/>
<path d="M1.25912 17.8673L10.734 11.3684H9.0873L0.468506 17.2802C0.6794 17.5403 0.95042 17.7441 1.25912 17.8673Z" fill="#FF4B55"/>
<path d="M17.5901 11.3684H15.9434L25.1203 17.6629C25.3771 17.4847 25.5914 17.244 25.7443 16.9613L17.5901 11.3684Z" fill="#FF4B55"/>
<path d="M0.205566 1.13752L8.21529 6.63156H9.86203L0.785793 0.405975C0.542094 0.597647 0.342676 0.848237 0.205566 1.13752Z" fill="#FF4B55"/>
<path d="M16.8882 6.63158L25.5228 0.708903C25.3095 0.449673 25.0364 0.247055 24.7256 0.12616L15.2415 6.63158H16.8882Z" fill="#FF4B55"/>
</g>
<defs>
<clipPath id="clip0_183_53">
<rect width="26" height="18" fill="white"/>
</clipPath>
</defs>
</svg>
